Coordinates
version=1
nRows=13
nColumns=22
inDegrees=yes

Units are S.I. units (second, meters, Newtons, ...)
If the header above contains a line with 'inDegrees', this indicates whether rotational values are in degrees (yes) or radians (no).

endheader
time	pelvis_tilt	pelvis_list	pelvis_rotation	pelvis_tx	pelvis_ty	pelvis_tz	hip_flexion_r	hip_adduction_r	hip_rotation_r	knee_angle_r	ankle_angle_r	subtalar_angle_r	hip_flexion_l	hip_adduction_l	hip_rotation_l	knee_angle_l	ankle_angle_l	subtalar_angle_l	lumbar_extension	lumbar_bending	lumbar_rotation
      4.31000000	     -1.59329966	      5.21003972	      9.88215572	     -0.66476376	      0.93387099	     -0.10478780	     18.26358813	    -13.38049830	    -10.42094100	    -71.50851025	     10.34526993	      5.56810279	      3.94926694	     10.13666477	      2.57510357	    -14.40846187	     12.67466995	    -10.13391211	    -11.91167333	     -8.14771372	     -5.32933867
      4.32000000	     -1.68711765	      5.38820020	      9.89392927	     -0.66897343	      0.93344863	     -0.10442498	     16.57289802	    -13.34647210	    -10.90850755	    -70.41424353	     10.03488876	      5.98986768	      4.47566492	     10.36212994	      2.53173309	    -14.71700325	     12.50293226	    -10.19466370	    -11.48339619	     -8.46689525	     -5.09023073
      4.33000000	     -1.79176834	      5.55223681	      9.89391127	     -0.67320797	      0.93298455	     -0.10397589	     14.85177507	    -13.26849330	    -11.41784241	    -69.05768385	      9.71639609	      6.44428613	      5.05138238	     10.56933513	      2.46601141	    -15.07866416	     12.34906765	    -10.22352396	    -11.05467972	     -8.77466424	     -4.82600668
      4.34000000	     -1.90257145	      5.70182695	      9.87761398	     -0.67748233	      0.93248550	     -0.10343637	     13.11012032	    -13.13784595	    -11.92524615	    -67.45438296	      9.39553957	      6.94877173	      5.67039813	     10.75707365	      2.37391893	    -15.48691058	     12.21737482	    -10.22436819	    -10.63540450	     -9.06799234	     -4.52820874
      4.35000000	     -2.01821090	      5.86094417	      9.82428809	     -0.68177016	      0.93194161	     -0.10278486	     11.36557541	    -12.97682348	    -12.38781301	    -65.63749762	      9.08127272	      7.56071551	      6.31655379	     10.94686944	      2.23028062	    -15.91930217	     12.07180931	    -10.19630455	    -10.22427297	     -9.37753304	     -4.18884926
      4.36000000	     -2.16202241	      5.96793361	      9.74101561	     -0.68611533	      0.93129041	     -0.10199750	      9.66407792	    -12.71077237	    -12.79668901	    -63.62128079	      8.80267311	      8.05112228	      7.06122042	     11.07710331	      2.05559649	    -16.44408923	     12.01530389	    -10.16964882	     -9.78605793	     -9.63776389	     -3.78712355
      4.37000000	     -2.30075544	      6.11018552	      9.59575482	     -0.69044329	      0.93060897	     -0.10108255	      7.97736986	    -12.44353837	    -13.10008464	    -61.44734828	      8.54684032	      8.74429035	      7.79818913	     11.22932702	      1.81044900	    -16.95429632	     11.89890402	    -10.10945011	     -9.36530371	     -9.94098331	     -3.33509850
      4.38000000	     -2.46784419	      6.22746202	      9.38938608	     -0.69481935	      0.92980502	     -0.09999986	      6.37119416	    -12.10813106	    -13.27582354	    -59.14687333	      8.35767662	      9.37344356	      8.61752319	     11.34112442	      1.50311159	    -17.53132487	     11.83356518	    -10.05093053	     -8.91365005	    -10.22661740	     -2.79930623
      4.39000000	     -2.65874879	      6.33228074	      9.11243535	     -0.69925825	      0.92888522	     -0.09873169	      4.85518825	    -11.72702622	    -13.30047130	    -56.75328689	      8.24526556	      9.86972175	      9.50732830	     11.41943182	      1.12823434	    -18.16355422	     11.81592687	    -10.00789599	     -8.43872661	    -10.51138155	     -2.17744123
      4.40000000	     -2.87156013	      6.44932192	      8.78354333	     -0.70379725	      0.92787633	     -0.09733856	      3.43137526	    -11.34807034	    -13.18424098	    -54.30231374	      8.17029362	     10.51587892	     10.44412139	     11.49232556	      0.70574462	    -18.81340876	     11.75861973	     -9.92273203	     -7.95485492	    -10.81200331	     -1.49958296
      4.41000000	     -3.12489859	      6.56066695	      8.40092603	     -0.70844713	      0.92674309	     -0.09578550	      2.13197434	    -10.96465585	    -12.93243437	    -51.82064978	      8.16057372	     11.15785348	     11.45613833	     11.53535367	      0.22383985	    -19.49079677	     11.67319560	     -9.81460641	     -7.42961851	    -11.11426226	     -0.79366036
      4.42000000	     -3.37885489	      6.66250998	      7.95910985	     -0.71325984	      0.92553459	     -0.09407820	      0.92446950	    -10.57916007	    -12.54965769	    -49.33126275	      8.22458803	     11.55829959	     12.50623992	     11.53705740	     -0.31405025	    -20.20218192	     11.64408159	     -9.74397264	     -6.92153029	    -11.40443476	     -0.00708949
      4.43000000	     -3.68521507	      6.75926547	      7.48336613	     -0.71826834	      0.92420894	     -0.09226829	     -0.12908645	    -10.21975209	    -12.05591579	    -46.86392989	      8.31578491	     12.06567948	     13.63379299	     11.51323455	     -0.87890311	    -20.91563660	     11.54539932	     -9.59994658	     -6.36859195	    -11.68702990	      0.79214341
